<svg width="91" height="39" viewBox="0 0 91 39" fill="none" xmlns="http://www.w3.org/2000/svg">
<rect width="91" height="39" rx="8" fill="#583B51"/>
<path d="M14.9091 25.1705C14.0152 25.1705 13.2462 24.9811 12.6023 24.6023C11.9621 24.2197 11.4697 23.6894 11.125 23.0114C10.7841 22.3333 10.6136 21.553 10.6136 20.6705C10.6136 19.7765 10.786 18.9924 11.1307 18.3182C11.4792 17.6402 11.9735 17.1117 12.6136 16.733C13.2538 16.3504 14.0152 16.1591 14.8977 16.1591C15.6591 16.1591 16.3258 16.2973 16.8977 16.5739C17.4697 16.8504 17.9223 17.2386 18.2557 17.7386C18.589 18.2386 18.7727 18.8258 18.8068 19.5H16.5227C16.4583 19.0644 16.2879 18.714 16.0114 18.4489C15.7386 18.1799 15.3807 18.0455 14.9375 18.0455C14.5625 18.0455 14.2348 18.1477 13.9545 18.3523C13.678 18.553 13.4621 18.8466 13.3068 19.233C13.1515 19.6193 13.0739 20.0871 13.0739 20.6364C13.0739 21.1932 13.1496 21.6667 13.3011 22.0568C13.4564 22.447 13.6742 22.7443 13.9545 22.9489C14.2348 23.1534 14.5625 23.2557 14.9375 23.2557C15.214 23.2557 15.4621 23.1989 15.6818 23.0852C15.9053 22.9716 16.089 22.8068 16.233 22.5909C16.3807 22.3712 16.4773 22.108 16.5227 21.8011H18.8068C18.7689 22.4678 18.5871 23.0549 18.2614 23.5625C17.9394 24.0663 17.4943 24.4602 16.9261 24.7443C16.358 25.0284 15.6856 25.1705 14.9091 25.1705ZM20.3565 25V16.2727H22.7031V17.7955H22.794C22.9531 17.2538 23.2202 16.8447 23.5952 16.5682C23.9702 16.2879 24.402 16.1477 24.8906 16.1477C25.0118 16.1477 25.1425 16.1553 25.2827 16.1705C25.4228 16.1856 25.5459 16.2064 25.652 16.233V18.3807C25.5384 18.3466 25.3812 18.3163 25.1804 18.2898C24.9796 18.2633 24.7959 18.25 24.6293 18.25C24.2732 18.25 23.955 18.3277 23.6747 18.483C23.3982 18.6345 23.1785 18.8466 23.0156 19.1193C22.8565 19.392 22.777 19.7064 22.777 20.0625V25H20.3565ZM30.4403 25.1705C29.5578 25.1705 28.7945 24.983 28.1506 24.608C27.5104 24.2292 27.0161 23.7027 26.6676 23.0284C26.3191 22.3504 26.1449 21.5644 26.1449 20.6705C26.1449 19.7689 26.3191 18.9811 26.6676 18.3068C27.0161 17.6288 27.5104 17.1023 28.1506 16.7273C28.7945 16.3485 29.5578 16.1591 30.4403 16.1591C31.3229 16.1591 32.0843 16.3485 32.7244 16.7273C33.3684 17.1023 33.8646 17.6288 34.2131 18.3068C34.5616 18.9811 34.7358 19.7689 34.7358 20.6705C34.7358 21.5644 34.5616 22.3504 34.2131 23.0284C33.8646 23.7027 33.3684 24.2292 32.7244 24.608C32.0843 24.983 31.3229 25.1705 30.4403 25.1705ZM30.4517 23.2955C30.8532 23.2955 31.1884 23.1818 31.4574 22.9545C31.7263 22.7235 31.929 22.4091 32.0653 22.0114C32.2055 21.6136 32.2756 21.161 32.2756 20.6534C32.2756 20.1458 32.2055 19.6932 32.0653 19.2955C31.929 18.8977 31.7263 18.5833 31.4574 18.3523C31.1884 18.1212 30.8532 18.0057 30.4517 18.0057C30.0464 18.0057 29.7055 18.1212 29.429 18.3523C29.1563 18.5833 28.9498 18.8977 28.8097 19.2955C28.6733 19.6932 28.6051 20.1458 28.6051 20.6534C28.6051 21.161 28.6733 21.6136 28.8097 22.0114C28.9498 22.4091 29.1563 22.7235 29.429 22.9545C29.7055 23.1818 30.0464 23.2955 30.4517 23.2955ZM36.3551 25V13.3636H38.7756V17.7386H38.8494C38.9555 17.5038 39.1089 17.2652 39.3097 17.0227C39.5142 16.7765 39.7794 16.572 40.1051 16.4091C40.4347 16.2424 40.8438 16.1591 41.3324 16.1591C41.9688 16.1591 42.5559 16.3258 43.0938 16.6591C43.6316 16.9886 44.0616 17.4867 44.3835 18.1534C44.7055 18.8163 44.8665 19.6477 44.8665 20.6477C44.8665 21.6212 44.7093 22.4432 44.3949 23.1136C44.0843 23.7803 43.66 24.286 43.1222 24.6307C42.5881 24.9716 41.9896 25.142 41.3267 25.142C40.857 25.142 40.4574 25.0644 40.1278 24.9091C39.8021 24.7538 39.535 24.5587 39.3267 24.3239C39.1184 24.0852 38.9593 23.8447 38.8494 23.6023H38.7415V25H36.3551ZM38.7244 20.6364C38.7244 21.1553 38.7964 21.608 38.9403 21.9943C39.0843 22.3807 39.2926 22.6818 39.5653 22.8977C39.8381 23.1098 40.1695 23.2159 40.5597 23.2159C40.9536 23.2159 41.2869 23.108 41.5597 22.892C41.8324 22.6723 42.0388 22.3693 42.179 21.983C42.3229 21.5928 42.3949 21.1439 42.3949 20.6364C42.3949 20.1326 42.3248 19.6894 42.1847 19.3068C42.0445 18.9242 41.8381 18.625 41.5653 18.4091C41.2926 18.1932 40.9574 18.0852 40.5597 18.0852C40.1657 18.0852 39.8324 18.1894 39.5597 18.3977C39.2907 18.6061 39.0843 18.9015 38.9403 19.2841C38.7964 19.6667 38.7244 20.1174 38.7244 20.6364ZM50.4247 25.1705C49.5421 25.1705 48.7789 24.983 48.1349 24.608C47.4948 24.2292 47.0005 23.7027 46.652 23.0284C46.3035 22.3504 46.1293 21.5644 46.1293 20.6705C46.1293 19.7689 46.3035 18.9811 46.652 18.3068C47.0005 17.6288 47.4948 17.1023 48.1349 16.7273C48.7789 16.3485 49.5421 16.1591 50.4247 16.1591C51.3073 16.1591 52.0687 16.3485 52.7088 16.7273C53.3527 17.1023 53.849 17.6288 54.1974 18.3068C54.5459 18.9811 54.7202 19.7689 54.7202 20.6705C54.7202 21.5644 54.5459 22.3504 54.1974 23.0284C53.849 23.7027 53.3527 24.2292 52.7088 24.608C52.0687 24.983 51.3073 25.1705 50.4247 25.1705ZM50.4361 23.2955C50.8376 23.2955 51.1728 23.1818 51.4418 22.9545C51.7107 22.7235 51.9134 22.4091 52.0497 22.0114C52.1899 21.6136 52.2599 21.161 52.2599 20.6534C52.2599 20.1458 52.1899 19.6932 52.0497 19.2955C51.9134 18.8977 51.7107 18.5833 51.4418 18.3523C51.1728 18.1212 50.8376 18.0057 50.4361 18.0057C50.0308 18.0057 49.6899 18.1212 49.4134 18.3523C49.1406 18.5833 48.9342 18.8977 48.794 19.2955C48.6577 19.6932 48.5895 20.1458 48.5895 20.6534C48.5895 21.161 48.6577 21.6136 48.794 22.0114C48.9342 22.4091 49.1406 22.7235 49.4134 22.9545C49.6899 23.1818 50.0308 23.2955 50.4361 23.2955ZM60.2372 25.1705C59.3546 25.1705 58.5914 24.983 57.9474 24.608C57.3073 24.2292 56.813 23.7027 56.4645 23.0284C56.116 22.3504 55.9418 21.5644 55.9418 20.6705C55.9418 19.7689 56.116 18.9811 56.4645 18.3068C56.813 17.6288 57.3073 17.1023 57.9474 16.7273C58.5914 16.3485 59.3546 16.1591 60.2372 16.1591C61.1198 16.1591 61.8812 16.3485 62.5213 16.7273C63.1652 17.1023 63.6615 17.6288 64.0099 18.3068C64.3584 18.9811 64.5327 19.7689 64.5327 20.6705C64.5327 21.5644 64.3584 22.3504 64.0099 23.0284C63.6615 23.7027 63.1652 24.2292 62.5213 24.608C61.8812 24.983 61.1198 25.1705 60.2372 25.1705ZM60.2486 23.2955C60.6501 23.2955 60.9853 23.1818 61.2543 22.9545C61.5232 22.7235 61.7259 22.4091 61.8622 22.0114C62.0024 21.6136 62.0724 21.161 62.0724 20.6534C62.0724 20.1458 62.0024 19.6932 61.8622 19.2955C61.7259 18.8977 61.5232 18.5833 61.2543 18.3523C60.9853 18.1212 60.6501 18.0057 60.2486 18.0057C59.8433 18.0057 59.5024 18.1212 59.2259 18.3523C58.9531 18.5833 58.7467 18.8977 58.6065 19.2955C58.4702 19.6932 58.402 20.1458 58.402 20.6534C58.402 21.161 58.4702 21.6136 58.6065 22.0114C58.7467 22.4091 58.9531 22.7235 59.2259 22.9545C59.5024 23.1818 59.8433 23.2955 60.2486 23.2955ZM73.3679 18.7614L71.152 18.8977C71.1141 18.7083 71.0327 18.5379 70.9077 18.3864C70.7827 18.2311 70.6179 18.108 70.4134 18.017C70.2126 17.9223 69.9721 17.875 69.6918 17.875C69.3168 17.875 69.0005 17.9545 68.7429 18.1136C68.4853 18.2689 68.3565 18.4773 68.3565 18.7386C68.3565 18.947 68.4399 19.1231 68.6065 19.267C68.7732 19.411 69.0592 19.5265 69.4645 19.6136L71.044 19.9318C71.8925 20.1061 72.5251 20.3864 72.9418 20.7727C73.3584 21.1591 73.5668 21.6667 73.5668 22.2955C73.5668 22.8674 73.3982 23.3693 73.0611 23.8011C72.7277 24.233 72.2694 24.5701 71.6861 24.8125C71.1065 25.0511 70.438 25.1705 69.6804 25.1705C68.5251 25.1705 67.6046 24.9299 66.919 24.4489C66.2372 23.964 65.8376 23.3049 65.7202 22.4716L68.1009 22.3466C68.1728 22.6989 68.3471 22.9678 68.6236 23.1534C68.9001 23.3352 69.2543 23.4261 69.6861 23.4261C70.1103 23.4261 70.4512 23.3447 70.7088 23.1818C70.9702 23.0152 71.1027 22.8011 71.1065 22.5398C71.1027 22.3201 71.0099 22.1402 70.8281 22C70.6463 21.8561 70.366 21.7462 69.9872 21.6705L68.4759 21.3693C67.6236 21.1989 66.9891 20.9034 66.5724 20.483C66.1596 20.0625 65.9531 19.5265 65.9531 18.875C65.9531 18.3144 66.1046 17.8314 66.4077 17.4261C66.7145 17.0208 67.1444 16.7083 67.6974 16.4886C68.2543 16.2689 68.9058 16.1591 69.652 16.1591C70.7543 16.1591 71.6217 16.392 72.2543 16.858C72.8906 17.3239 73.2618 17.9583 73.3679 18.7614ZM79.733 16.2727V18.0909H74.4773V16.2727H79.733ZM75.6705 14.1818H78.0909V22.3182C78.0909 22.5417 78.125 22.7159 78.1932 22.8409C78.2614 22.9621 78.3561 23.0473 78.4773 23.0966C78.6023 23.1458 78.7462 23.1705 78.9091 23.1705C79.0227 23.1705 79.1364 23.161 79.25 23.142C79.3636 23.1193 79.4508 23.1023 79.5114 23.0909L79.892 24.892C79.7708 24.9299 79.6004 24.9735 79.3807 25.0227C79.161 25.0758 78.8939 25.108 78.5795 25.1193C77.9962 25.142 77.4848 25.0644 77.0455 24.8864C76.6098 24.7083 76.2708 24.4318 76.0284 24.0568C75.786 23.6818 75.6667 23.2083 75.6705 22.6364V14.1818Z" fill="white"/>
</svg>
